<svg width="26" height="25" viewBox="0 0 26 25" fill="none" xmlns="http://www.w3.org/2000/svg">
<path d="M16.917 19.5118C17.0014 19.3589 17.083 19.2069 17.1618 19.0555C17.3313 19.0969 17.5012 19.1407 17.6714 19.1869L16.917 19.5118ZM17.3934 18.5967C18.3373 16.6633 18.8224 14.838 18.8556 12.9998L17.3934 18.5967ZM18.8291 11.9998C18.7103 10.3149 18.2161 8.60094 17.3518 6.76597L18.8291 11.9998ZM17.1206 6.2902C17.0419 6.13278 16.9607 5.97443 16.8766 5.81509L17.1206 6.2902ZM12.6202 24.4928C10.9868 22.5347 9.74445 20.7332 8.87378 19.0124C8.70411 19.0525 8.53402 19.095 8.36363 19.1401L12.6202 24.4928ZM8.64844 18.5512C7.74958 16.6435 7.31295 14.8283 7.31151 12.9998L8.64844 18.5512ZM7.35374 11.9998C7.49739 10.3074 8.00641 8.58755 8.85963 6.75744L7.35374 11.9998ZM9.08807 6.28139C9.16583 6.12378 9.24596 5.96533 9.32868 5.80597L9.08807 6.28139ZM9.63106 6.34219C11.9607 6.5852 14.2453 6.59167 16.5765 6.35081L9.63106 6.34219ZM9.39116 18.8979C11.8323 18.3933 14.2093 18.4116 16.645 18.9367L9.39116 18.8979ZM11.9245 24.4511C9.02993 24.199 6.42214 22.9831 4.44617 21.1373C5.87512 20.4569 7.25192 19.9451 8.59908 19.5964C9.42204 21.1431 10.529 22.745 11.9245 24.4511ZM13.0425 24.2032C11.595 22.4703 10.4669 20.8738 9.63623 19.359C10.7627 19.1353 11.8721 19.027 12.9781 19.031C14.11 19.035 15.2441 19.1566 16.3952 19.3956C15.5578 20.8904 14.4443 22.4737 13.0425 24.2032ZM16.8809 18.4757C15.5745 18.1853 14.2804 18.0356 12.9819 18.031C11.7113 18.0265 10.4431 18.1609 9.16129 18.4345C8.25839 16.5467 7.82941 14.7728 7.82786 12.9998H18.3391C18.3056 14.7799 17.8285 16.562 16.8809 18.4757ZM14.1503 24.4531C15.5043 22.7534 16.5995 21.1666 17.4308 19.6411C18.7811 20.0003 20.16 20.5181 21.5902 21.1943C19.6165 23.013 17.0242 24.208 14.1503 24.4531ZM22.3419 20.4387C20.8253 19.7027 19.352 19.131 17.8993 18.7297C18.8444 16.771 19.3392 14.899 19.3719 12.9998H25.4308C25.3102 15.8477 24.1647 18.4396 22.3419 20.4387ZM8.14201 18.6806C6.69199 19.0708 5.21946 19.6369 3.7019 20.3791C1.91047 18.3882 0.786373 15.8195 0.666992 12.9998H6.79516C6.7965 14.8868 7.24232 16.7472 8.14201 18.6806ZM6.83574 11.9998H0.666992C0.768094 9.61196 1.58971 7.40409 2.92706 5.57466C4.78397 6.07157 6.57157 6.44396 8.32634 6.68733C7.48448 8.52407 6.97691 10.2697 6.83574 11.9998ZM8.7859 5.73958C7.10456 5.5211 5.39254 5.17965 3.61402 4.71923C5.68004 2.37238 8.66342 0.805904 12.0269 0.540039C10.7091 2.38665 9.62156 4.10294 8.7859 5.73958ZM9.87705 5.86447C10.6958 4.3133 11.7571 2.66167 13.0559 0.858294C14.4086 2.67496 15.4971 4.32814 16.3266 5.87323C14.1639 6.08389 12.0398 6.07808 9.87705 5.86447ZM9.39746 6.82025C11.8855 7.09219 14.3218 7.09937 16.8131 6.82872C17.6938 8.66259 18.1902 10.3527 18.3116 11.9998H7.87185C8.01839 10.3441 8.52989 8.64779 9.39746 6.82025ZM19.3466 11.9998C19.2299 10.276 18.7369 8.53602 17.8855 6.69552C19.6038 6.45558 21.3549 6.08446 23.1732 5.57798C24.509 7.40676 25.3298 9.6134 25.4308 11.9998H19.3466ZM17.4206 5.74864C16.5757 4.11802 15.4623 2.40079 14.0924 0.541761C17.4503 0.812857 20.4279 2.38037 22.4897 4.72591C20.748 5.19423 19.0696 5.53389 17.4206 5.74864Z" stroke="#434343"/>
</svg>
